<?xml version="1.0" encoding="UTF-8"?>
<svg xmlns="http://www.w3.org/2000/svg" viewBox="0 0 100 100" width="100%" height="100%">
  <defs>
    <style>
      .outline { fill: none; stroke: #31162B; stroke-width: 5; stroke-linecap: round; stroke-linejoin: round; }
      .filled { stroke: #31162B; stroke-width: 5; stroke-linecap: round; stroke-linejoin: round; }
      .highlight { fill: #FFFFFF; }
      .accent { fill: #31162B; }
    </style>
  </defs>
  
    <g transform="translate(25, 15) scale(0.7)">
      <path d="M0 -10 Q0 0 10 0 Q0 0 0 10 Q0 0 -10 0 Q0 0 0 -10 Z" fill="#FFD166"/>
      <circle cx="60" cy="10" r="3" fill="#FFD166"/>
    </g>
  
    <g transform="translate(85, 55) scale(0.5)">
      <path d="M0 -10 Q0 0 10 0 Q0 0 0 10 Q0 0 -10 0 Q0 0 0 -10 Z" fill="#118AB2"/>
      
    </g>
  
  
    <!-- Crown Body -->
    <path class="filled" fill="#FFD166" d="M15 75 L10 30 L35 45 L50 15 L65 45 L90 30 L85 75 Z" />
    <path fill="#F4A261" d="M15 75 L85 75 L90 30 L65 45 L50 15 L50 75 Z" opacity="0.4"/>
    <!-- Jewels -->
    <circle class="filled" cx="10" cy="30" r="6" fill="#EF476F" stroke-width="3"/>
    <circle class="filled" cx="50" cy="15" r="8" fill="#118AB2" stroke-width="3"/>
    <circle class="filled" cx="90" cy="30" r="6" fill="#06D6A0" stroke-width="3"/>
    <!-- Base -->
    <rect class="filled" x="20" y="75" width="60" height="10" rx="5" fill="#F4A261" />
    <!-- Highlights -->
    <path class="highlight" d="M22 65 L28 65 L28 70 L22 70 Z" rx="2" />
    <circle class="highlight" cx="48" cy="12" r="2"/>
    <animateTransform attributeName="transform" type="translate" values="0,0; 0,-4; 0,0" dur="2s" repeatCount="indefinite" />
  
</svg>