<?xml version="1.0" encoding="UTF-8"?>
<svg xmlns="http://www.w3.org/2000/svg" viewBox="0 0 100 100" width="100%" height="100%">
  <defs>
    <style>
      .outline { fill: none; stroke: #31162B; stroke-width: 5; stroke-linecap: round; stroke-linejoin: round; }
      .filled { stroke: #31162B; stroke-width: 5; stroke-linecap: round; stroke-linejoin: round; }
      .highlight { fill: #FFFFFF; }
      .accent { fill: #31162B; }
    </style>
  </defs>
  
    <g transform="translate(10, 15) scale(0.6)">
      <path d="M0 -10 Q0 0 10 0 Q0 0 0 10 Q0 0 -10 0 Q0 0 0 -10 Z" fill="#EF476F"/>
      <circle cx="80" cy="10" r="3" fill="#EF476F"/>
    </g>
  
    <g transform="translate(85, 70) scale(0.4)">
      <path d="M0 -10 Q0 0 10 0 Q0 0 0 10 Q0 0 -10 0 Q0 0 0 -10 Z" fill="#118AB2"/>
      
    </g>
  
  
    <rect class="filled" x="15" y="30" width="70" height="55" rx="8" fill="#FFFFFF" />
    <rect class="filled" x="15" y="25" width="70" height="25" rx="8" fill="#EF476F" />
    <!-- Shadow on red header -->
    <path fill="#C1121F" d="M15 45 L85 45 L85 50 C85 54.4 81.4 58 77 58 L23 58 C18.6 58 15 54.4 15 50 Z" />
    
    <line x1="30" y1="12" x2="30" y2="35" class="outline" stroke-width="6"/>
    <line x1="70" y1="12" x2="70" y2="35" class="outline" stroke-width="6"/>
    
    <!-- Shadow on white body -->
    <path fill="#E5E5E5" d="M15 75 L85 75 L85 85 C85 89.4 81.4 93 77 93 L23 93 C18.6 93 15 89.4 15 85 Z" />
    
    <!-- Dates -->
    <circle cx="35" cy="60" r="5" fill="#118AB2" class="filled" stroke-width="3"/>
    <circle cx="50" cy="60" r="5" fill="#FFD166" class="filled" stroke-width="3"/>
    <circle cx="65" cy="60" r="5" fill="#06D6A0" class="filled" stroke-width="3"/>
    
    <!-- Highlight -->
    <path class="highlight" d="M20 30 L35 30 L35 35 L20 35 Z" rx="2" />
    <circle class="highlight" cx="22" cy="40" r="2"/>
    <animateTransform attributeName="transform" type="translate" values="0,0; 0,-3; 0,0" dur="2s" repeatCount="indefinite" />
  
</svg>