<?xml version="1.0" encoding="UTF-8"?>
<svg xmlns="http://www.w3.org/2000/svg" viewBox="0 0 100 100" width="100%" height="100%">
  <defs>
    <style>
      .outline { fill: none; stroke: #31162B; stroke-width: 5; stroke-linecap: round; stroke-linejoin: round; }
      .filled { stroke: #31162B; stroke-width: 5; stroke-linecap: round; stroke-linejoin: round; }
      .highlight { fill: #FFFFFF; }
      .accent { fill: #31162B; }
    </style>
  </defs>
  
    <g transform="translate(20, 20) scale(0.8)">
      <path d="M0 -10 Q0 0 10 0 Q0 0 0 10 Q0 0 -10 0 Q0 0 0 -10 Z" fill="#EF476F"/>
      <circle cx="60" cy="50" r="3" fill="#EF476F"/>
    </g>
  
    <g transform="translate(80, 75) scale(0.5)">
      <path d="M0 -10 Q0 0 10 0 Q0 0 0 10 Q0 0 -10 0 Q0 0 0 -10 Z" fill="#EF476F"/>
      
    </g>
  
  
    <rect class="filled" x="15" y="38" width="70" height="24" rx="12" fill="#EF476F" />
    <path fill="#C1121F" d="M15 62 L85 62 A12 12 0 0 0 85 50 L15 50 A12 12 0 0 0 15 62 Z" opacity="0.4"/>
    <path class="highlight" d="M22 42 L32 42 L32 46 L22 46 Z" rx="2" />
    <circle class="highlight" cx="24" cy="52" r="2.5"/>
  
</svg>