<?xml version="1.0" encoding="UTF-8"?>
<svg xmlns="http://www.w3.org/2000/svg" viewBox="0 0 100 100" width="100%" height="100%">
  <defs>
    <style>
      .outline { fill: none; stroke: #31162B; stroke-width: 5; stroke-linecap: round; stroke-linejoin: round; }
      .filled { stroke: #31162B; stroke-width: 5; stroke-linecap: round; stroke-linejoin: round; }
      .highlight { fill: #FFFFFF; }
      .accent { fill: #31162B; }
    </style>
  </defs>
  
    <g transform="translate(18, 18) scale(0.7)">
      <path d="M0 -10 Q0 0 10 0 Q0 0 0 10 Q0 0 -10 0 Q0 0 0 -10 Z" fill="#06D6A0"/>
      <circle cx="70" cy="60" r="3" fill="#06D6A0"/>
    </g>
  
    <g transform="translate(82, 22) scale(0.4)">
      <path d="M0 -10 Q0 0 10 0 Q0 0 0 10 Q0 0 -10 0 Q0 0 0 -10 Z" fill="#06D6A0"/>
      
    </g>
  
  
    <rect class="filled" x="38" y="15" width="24" height="70" rx="12" fill="#06D6A0" />
    <rect class="filled" x="15" y="38" width="70" height="24" rx="12" fill="#06D6A0" />
    <path fill="#04A77B" d="M15 62 L85 62 L85 50 L62 50 L62 85 L38 85 L38 50 L15 50 Z" opacity="0.4"/>
    <path class="highlight" d="M42 22 L46 22 L46 32 L42 32 Z" rx="2" />
    <path class="highlight" d="M22 42 L32 42 L32 46 L22 46 Z" rx="2" />
    <circle class="highlight" cx="24" cy="52" r="2.5"/>
    <animateTransform attributeName="transform" type="scale" values="1; 1.05; 1" dur="2s" repeatCount="indefinite" />
  
</svg>