<?xml version="1.0" encoding="UTF-8"?>
<svg xmlns="http://www.w3.org/2000/svg" viewBox="0 0 100 100" width="100%" height="100%">
  <defs>
    <style>
      .outline { fill: none; stroke: #31162B; stroke-width: 5; stroke-linecap: round; stroke-linejoin: round; }
      .filled { stroke: #31162B; stroke-width: 5; stroke-linecap: round; stroke-linejoin: round; }
      .highlight { fill: #FFFFFF; }
      .accent { fill: #31162B; }
    </style>
  </defs>
  
    <g transform="translate(20, 20) scale(0.8)">
      <path d="M0 -10 Q0 0 10 0 Q0 0 0 10 Q0 0 -10 0 Q0 0 0 -10 Z" fill="#FFD166"/>
      <circle cx="15" cy="-15" r="3" fill="#FFD166"/>
    </g>
  
    <g transform="translate(85, 30) scale(0.5)">
      <path d="M0 -10 Q0 0 10 0 Q0 0 0 10 Q0 0 -10 0 Q0 0 0 -10 Z" fill="#FFD166"/>
      
    </g>
  
  
    <!-- Base Layer -->
    <path class="filled" fill="#FFD166" d="M50 20 L58 40 L80 43 L63 58 L68 80 L50 68 L32 80 L37 58 L20 43 L42 40 Z" />
    <!-- Shadow Layer -->
    <path fill="#F4A261" d="M50 68 L32 80 L37 58 L20 43 L42 40 L50 20 L50 68 Z" opacity="0.6"/>
    <!-- Highlight -->
    <path class="highlight" d="M43 32 Q46 32 45 37 Q44 42 41 42 Q38 42 39 37 Q40 32 43 32 Z" transform="rotate(-20 42 37)"/>
    <circle class="highlight" cx="37" cy="48" r="2.5"/>
    <!-- Accents -->
    <line x1="58" y1="65" x2="62" y2="70" class="outline" stroke-width="4"/>
    <line x1="65" y1="61" x2="68" y2="65" class="outline" stroke-width="4"/>
    <animateTransform attributeName="transform" type="translate" values="0,0; 0,-3; 0,0" dur="2s" repeatCount="indefinite" />
  
</svg>