<?xml version="1.0" encoding="UTF-8"?>
<svg xmlns="http://www.w3.org/2000/svg" viewBox="0 0 100 100" width="100%" height="100%">
  <defs>
    <style>
      .outline { fill: none; stroke: #31162B; stroke-width: 5; stroke-linecap: round; stroke-linejoin: round; }
      .filled { stroke: #31162B; stroke-width: 5; stroke-linecap: round; stroke-linejoin: round; }
      .highlight { fill: #FFFFFF; }
      .accent { fill: #31162B; }
    </style>
  </defs>
  
    <g transform="translate(15, 15) scale(0.9)">
      <path d="M0 -10 Q0 0 10 0 Q0 0 0 10 Q0 0 -10 0 Q0 0 0 -10 Z" fill="#EF476F"/>
      <circle cx="70" cy="10" r="3" fill="#EF476F"/>
    </g>
  
    <g transform="translate(85, 20) scale(0.5)">
      <path d="M0 -10 Q0 0 10 0 Q0 0 0 10 Q0 0 -10 0 Q0 0 0 -10 Z" fill="#EF476F"/>
      
    </g>
  
  
    <g transform="rotate(-5 50 50)">
      <text x="50" y="70" font-family="Arial, sans-serif" font-weight="900" font-size="55" fill="#EF476F" stroke="#31162B" stroke-width="5" text-anchor="middle" stroke-linejoin="round">100</text>
      <!-- Highlights manually drawn -->
      <path class="highlight" d="M18 35 L22 35 L22 45 L18 45 Z" rx="2" />
      <path class="highlight" d="M42 35 Q48 35 48 42 Q48 38 42 38 Z" />
      <path class="highlight" d="M72 35 Q78 35 78 42 Q78 38 72 38 Z" />
      <line x1="20" y1="80" x2="80" y2="80" class="outline" stroke-width="6"/>
      <animateTransform attributeName="transform" type="scale" values="1; 1.05; 1" dur="1.2s" repeatCount="indefinite" />
    </g>
  
</svg>