<?xml version="1.0" encoding="UTF-8"?>
<svg xmlns="http://www.w3.org/2000/svg" viewBox="0 0 100 100" width="100%" height="100%">
  <defs>
    <style>
      .outline { fill: none; stroke: #31162B; stroke-width: 5; stroke-linecap: round; stroke-linejoin: round; }
      .filled { stroke: #31162B; stroke-width: 5; stroke-linecap: round; stroke-linejoin: round; }
      .highlight { fill: #FFFFFF; }
      .accent { fill: #31162B; }
    </style>
  </defs>
  
    <g transform="translate(15, 20) scale(0.8)">
      <path d="M0 -10 Q0 0 10 0 Q0 0 0 10 Q0 0 -10 0 Q0 0 0 -10 Z" fill="#06D6A0"/>
      <circle cx="70" cy="60" r="3" fill="#06D6A0"/>
    </g>
  
    <g transform="translate(85, 25) scale(0.6)">
      <path d="M0 -10 Q0 0 10 0 Q0 0 0 10 Q0 0 -10 0 Q0 0 0 -10 Z" fill="#06D6A0"/>
      
    </g>
  
  
    <circle class="filled" cx="50" cy="50" r="40" fill="#06D6A0" />
    <path fill="#04A77B" d="M50 90 A40 40 0 0 0 90 50 A40 40 0 0 1 50 85 A40 40 0 0 1 10 50 A40 40 0 0 0 50 90 Z" />
    <path class="outline" stroke-width="8" stroke="#FFFFFF" d="M30 50 L45 65 L70 35" />
    <path class="highlight" d="M22 35 A30 30 0 0 1 40 15 A32 32 0 0 0 22 40 Z" />
    <circle class="highlight" cx="20" cy="50" r="2.5"/>
    <line x1="65" y1="70" x2="70" y2="75" class="outline" stroke-width="4"/>
    <animateTransform attributeName="transform" type="translate" values="0,0; 0,-4; 0,0" dur="2s" repeatCount="indefinite" />
  
</svg>