<?xml version="1.0" encoding="UTF-8"?>
<svg xmlns="http://www.w3.org/2000/svg" viewBox="0 0 100 100" width="100%" height="100%">
  <defs>
    <style>
      .outline { fill: none; stroke: #31162B; stroke-width: 5; stroke-linecap: round; stroke-linejoin: round; }
      .filled { stroke: #31162B; stroke-width: 5; stroke-linecap: round; stroke-linejoin: round; }
      .highlight { fill: #FFFFFF; }
      .accent { fill: #31162B; }
    </style>
  </defs>
  
    <g transform="translate(20, 20) scale(0.7)">
      <path d="M0 -10 Q0 0 10 0 Q0 0 0 10 Q0 0 -10 0 Q0 0 0 -10 Z" fill="#9D4EDD"/>
      <circle cx="60" cy="60" r="3" fill="#9D4EDD"/>
    </g>
  
    <g transform="translate(80, 20) scale(0.4)">
      <path d="M0 -10 Q0 0 10 0 Q0 0 0 10 Q0 0 -10 0 Q0 0 0 -10 Z" fill="#9D4EDD"/>
      
    </g>
  
  
    <rect class="filled" x="15" y="42" width="70" height="16" rx="8" fill="#9D4EDD" />
    <path fill="#5A189A" d="M15 58 L85 58 A8 8 0 0 0 85 50 L15 50 A8 8 0 0 0 15 58 Z" opacity="0.4"/>
    <circle class="filled" cx="50" cy="20" r="10" fill="#9D4EDD" />
    <path fill="#5A189A" d="M40 20 A10 10 0 0 0 60 20 Z" opacity="0.4"/>
    <circle class="filled" cx="50" cy="80" r="10" fill="#9D4EDD" />
    <path fill="#5A189A" d="M40 80 A10 10 0 0 0 60 80 Z" opacity="0.4"/>
    <path class="highlight" d="M22 45 L32 45 L32 48 L22 48 Z" rx="1.5" />
    <circle class="highlight" cx="46" cy="15" r="2"/>
    <circle class="highlight" cx="46" cy="75" r="2"/>
  
</svg>