<?xml version="1.0" encoding="UTF-8"?>
<svg xmlns="http://www.w3.org/2000/svg" viewBox="0 0 100 100" width="100%" height="100%">
  <defs>
    <style>
      .outline { fill: none; stroke: #31162B; stroke-width: 5; stroke-linecap: round; stroke-linejoin: round; }
      .filled { stroke: #31162B; stroke-width: 5; stroke-linecap: round; stroke-linejoin: round; }
      .highlight { fill: #FFFFFF; }
      .accent { fill: #31162B; }
    </style>
  </defs>
  
    <g transform="translate(20, 15) scale(0.7)">
      <path d="M0 -10 Q0 0 10 0 Q0 0 0 10 Q0 0 -10 0 Q0 0 0 -10 Z" fill="#EF476F"/>
      <circle cx="-5" cy="60" r="3" fill="#EF476F"/>
    </g>
  
    <g transform="translate(80, 80) scale(0.5)">
      <path d="M0 -10 Q0 0 10 0 Q0 0 0 10 Q0 0 -10 0 Q0 0 0 -10 Z" fill="#118AB2"/>
      
    </g>
  
  
    <!-- Outer Red -->
    <circle class="filled" cx="50" cy="50" r="40" fill="#EF476F" />
    <path fill="#C1121F" d="M50 90 A40 40 0 0 0 90 50 A40 40 0 0 1 50 85 A40 40 0 0 1 10 50 A40 40 0 0 0 50 90 Z" />
    <!-- Middle White -->
    <circle class="filled" cx="50" cy="50" r="25" fill="#FFFFFF" />
    <path fill="#E5E5E5" d="M50 75 A25 25 0 0 0 75 50 A25 25 0 0 1 50 70 A25 25 0 0 1 25 50 A25 25 0 0 0 50 75 Z" />
    <!-- Inner Red -->
    <circle class="filled" cx="50" cy="50" r="10" fill="#EF476F" />
    <!-- Arrow -->
    <path class="filled" fill="#FFD166" d="M75 15 L55 35 L50 30 L45 45 L60 40 L55 35 L75 15 Z" />
    <path class="filled" fill="#118AB2" d="M85 5 L75 15 L85 25 L95 15 Z" />
    <!-- Highlight -->
    <path class="highlight" d="M20 35 A30 30 0 0 1 40 15 A32 32 0 0 0 20 40 Z" />
    <circle class="highlight" cx="18" cy="50" r="2.5"/>
    <animateTransform attributeName="transform" type="rotate" values="-2 50 50; 2 50 50; -2 50 50" dur="1.5s" repeatCount="indefinite" />
  
</svg>