<?xml version="1.0" encoding="UTF-8"?>
<svg xmlns="http://www.w3.org/2000/svg" viewBox="0 0 100 100" width="100%" height="100%">
  <defs>
    <style>
      .outline { fill: none; stroke: #31162B; stroke-width: 5; stroke-linecap: round; stroke-linejoin: round; }
      .filled { stroke: #31162B; stroke-width: 5; stroke-linecap: round; stroke-linejoin: round; }
      .highlight { fill: #FFFFFF; }
      .accent { fill: #31162B; }
    </style>
  </defs>
  
    <g transform="translate(15, 30) scale(0.6)">
      <path d="M0 -10 Q0 0 10 0 Q0 0 0 10 Q0 0 -10 0 Q0 0 0 -10 Z" fill="#FFD166"/>
      <circle cx="70" cy="20" r="3" fill="#FFD166"/>
    </g>
  
    <g transform="translate(80, 70) scale(0.4)">
      <path d="M0 -10 Q0 0 10 0 Q0 0 0 10 Q0 0 -10 0 Q0 0 0 -10 Z" fill="#FFD166"/>
      
    </g>
  
  
    <!-- Shackle -->
    <path class="outline" stroke-width="8" d="M35 50 V35 C35 25, 65 25, 65 35 V50" />
    <!-- Body -->
    <rect class="filled" x="25" y="45" width="50" height="40" rx="8" fill="#FFD166" />
    <path fill="#F4A261" d="M25 75 L75 75 L75 85 C75 89.4 71.4 93 67 93 L33 93 C28.6 93 25 89.4 25 85 Z" />
    <!-- Keyhole -->
    <circle class="accent" cx="50" cy="60" r="5" />
    <path class="accent" d="M48 60 L47 70 L53 70 L52 60 Z" />
    <!-- Highlight -->
    <path class="highlight" d="M30 50 L40 50 L40 55 L30 55 Z" rx="2" />
    <circle class="highlight" cx="30" cy="62" r="2.5"/>
  
</svg>