<?xml version="1.0" encoding="UTF-8"?>
<svg xmlns="http://www.w3.org/2000/svg" viewBox="0 0 100 100" width="100%" height="100%">
  <defs>
    <style>
      .outline { fill: none; stroke: #31162B; stroke-width: 5; stroke-linecap: round; stroke-linejoin: round; }
      .filled { stroke: #31162B; stroke-width: 5; stroke-linecap: round; stroke-linejoin: round; }
      .highlight { fill: #FFFFFF; }
      .accent { fill: #31162B; }
    </style>
  </defs>
  
    <g transform="translate(18, 20) scale(0.6)">
      <path d="M0 -10 Q0 0 10 0 Q0 0 0 10 Q0 0 -10 0 Q0 0 0 -10 Z" fill="#F4A261"/>
      <circle cx="15" cy="-15" r="3" fill="#F4A261"/>
    </g>
  
    <g transform="translate(85, 25) scale(0.8)">
      <path d="M0 -10 Q0 0 10 0 Q0 0 0 10 Q0 0 -10 0 Q0 0 0 -10 Z" fill="#E76F51"/>
      
    </g>
  
  
    <!-- Brain Base -->
    <path class="filled" fill="#F4A261" d="M50 85 C20 85, 15 65, 15 50 C15 30, 30 15, 50 15 C70 15, 85 30, 85 50 C85 65, 80 85, 50 85 Z" />
    <!-- Brain Shadow -->
    <path fill="#E76F51" d="M50 85 C80 85, 85 65, 85 50 C85 30, 70 15, 50 15 C70 20, 75 40, 75 55 C75 75, 60 80, 50 85 Z" />
    <!-- Middle Line -->
    <path class="outline" d="M50 15 V85" />
    <!-- Brain Folds -->
    <path class="outline" d="M25 40 Q40 30 50 40" />
    <path class="outline" d="M20 55 Q35 45 50 55" />
    <path class="outline" d="M28 70 Q40 65 50 70" />
    <path class="outline" d="M75 40 Q60 30 50 40" />
    <path class="outline" d="M80 55 Q65 45 50 55" />
    <path class="outline" d="M72 70 Q60 65 50 70" />
    <!-- Highlights -->
    <path class="highlight" d="M22 35 Q28 25 38 22 Q35 28 26 38 Z" />
    <circle class="highlight" cx="22" cy="45" r="2.5"/>
  
</svg>